<svg xmlns="http://www.w3.org/2000/svg" width="2753" height="220" viewBox="0 0 2753 220" version="1.1"><path d="M 1936.655 1.536 L 1928.811 3.014 1921.362 5.515 L 1913.913 8.015 1907.707 11.140 L 1901.500 14.266 1897 17.297 L 1892.500 20.329 1886.282 25.721 L 1880.064 31.113 1873.973 39.197 L 1867.881 47.281 1864.059 54.890 L 1860.238 62.500 1857.610 70.829 L 1854.983 79.158 1853.491 87.710 L 1852 96.262 1852 110 L 1852 123.738 1853.491 132.290 L 1854.983 140.842 1857.610 149.171 L 1860.236 157.500 1863.754 164.500 L 1867.271 171.500 1871.313 177.500 L 1875.355 183.500 1882.428 190.572 L 1889.500 197.645 1895.500 201.687 L 1901.500 205.729 1908.500 209.224 L 1915.500 212.719 1922 214.818 L 1928.500 216.917 1937.500 218.568 L 1946.500 220.219 1962.500 219.740 L 1978.500 219.262 1988.477 216.631 L 1998.453 214 2008.477 209.068 L 2018.500 204.137 2026.564 197.713 L 2034.628 191.290 2041.075 183.231 L 2047.523 175.172 2051.698 167.336 L 2055.872 159.500 2058.850 150.500 L 2061.829 141.500 2063.414 132.074 L 2065 122.648 2065 110 L 2065 97.352 2063.414 87.926 L 2061.829 78.500 2058.850 69.500 L 2055.872 60.500 2051.698 52.664 L 2047.523 44.828 2041.222 36.953 L 2034.922 29.078 2026.711 22.467 L 2018.500 15.855 2008.477 10.927 L 1998.453 6 1988.477 3.382 L 1978.500 0.765 1961.500 0.412 L 1944.500 0.058 1936.655 1.536 M 2634.306 1.485 L 2627.112 2.790 2620.306 4.982 L 2613.500 7.174 2605.500 11.282 L 2597.500 15.390 2589.394 23.445 L 2581.288 31.500 2577.717 39 L 2574.146 46.500 2572.573 54.208 L 2571 61.916 2571 68.821 L 2571 75.727 2572.021 81.109 L 2573.041 86.491 2576.026 92.869 L 2579.011 99.247 2585.281 105.396 L 2591.552 111.544 2599.526 115.662 L 2607.500 119.780 2614.795 122.385 L 2622.089 124.989 2639.795 130.041 L 2657.500 135.092 2665.500 137.686 L 2673.500 140.279 2678.151 142.606 L 2682.803 144.934 2684.901 147.602 L 2687 150.270 2687 154.685 L 2687 159.099 2685.501 161.998 L 2684.002 164.897 2680.712 167.406 L 2677.422 169.915 2671.501 171.458 L 2665.580 173 2660.339 173 L 2655.098 173 2649.799 171.877 L 2644.500 170.754 2641 168.968 L 2637.500 167.183 2634.789 164.327 L 2632.078 161.472 2630.681 157.486 L 2629.284 153.500 2628.581 148.750 L 2627.877 144 2595.290 144 L 2562.703 144 2563.293 152.357 L 2563.882 160.714 2566.608 168.959 L 2569.333 177.204 2573.083 183.007 L 2576.834 188.810 2580.616 192.997 L 2584.398 197.183 2590.449 201.474 L 2596.500 205.764 2602.500 208.765 L 2608.500 211.765 2616.828 214.391 L 2625.157 217.017 2634.328 218.504 L 2643.500 219.992 2656.872 219.996 L 2670.243 220 2680.872 218.439 L 2691.500 216.878 2702 213.384 L 2712.500 209.890 2718.500 206.513 L 2724.500 203.137 2730.456 198.310 L 2736.413 193.483 2741.650 185.783 L 2746.887 178.084 2749.441 169.997 L 2751.996 161.910 2752.598 152.205 L 2753.201 142.500 2751.607 135.024 L 2750.013 127.547 2747.336 122.024 L 2744.660 116.500 2737.080 108.948 L 2729.500 101.395 2721.500 97.307 L 2713.500 93.220 2706.019 90.548 L 2698.537 87.876 2675.019 81.941 L 2651.500 76.007 2644.181 72.415 L 2636.863 68.823 2634.935 65.662 L 2633.007 62.500 2633.004 59.827 L 2633 57.153 2635.528 54.149 L 2638.057 51.144 2642.778 49.322 L 2647.500 47.500 2656 47.543 L 2664.500 47.586 2669.488 49.842 L 2674.475 52.098 2676.833 54.299 L 2679.190 56.500 2680.595 59.200 L 2682 61.901 2682 65.450 L 2682 69 2713.138 69 L 2744.276 69 2743.628 62.670 L 2742.979 56.340 2741.475 50.420 L 2739.970 44.500 2736.316 37.019 L 2732.662 29.538 2725.501 22.469 L 2718.339 15.399 2710.419 11.299 L 2702.500 7.200 2695.558 5.073 L 2688.615 2.946 2679.558 1.477 L 2670.500 0.008 2656 0.094 L 2641.500 0.180 2634.306 1.485 M 1635 110 L 1635 215 1663 215 L 1691 215 1691 188 L 1691 161 1686.453 161 L 1681.906 161 1705.536 140.500 L 1729.166 120 1730.125 120 L 1731.085 120 1754.433 140.250 L 1777.782 160.500 1773.391 160.805 L 1769 161.110 1769 188.055 L 1769 215 1797 215 L 1825 215 1825 110 L 1825 5 1792.500 5 L 1760 5 1760 41.500 L 1760 78 1730 78 L 1700 78 1700 41.500 L 1700 5 1667.500 5 L 1635 5 1635 110 M 2091 109.990 L 2091 215 2121.993 215 L 2152.986 215 2153.243 148.600 L 2153.500 82.200 2171.456 148.600 L 2189.412 215 2214.084 215 L 2238.757 215 2239.722 211.250 L 2240.688 207.500 2257.594 145.047 L 2274.500 82.595 2274.757 148.797 L 2275.014 215 2306.007 215 L 2337 215 2337 109.990 L 2337 4.980 2290.331 5.240 L 2243.661 5.500 2228.933 66 L 2214.204 126.500 2213.613 125 L 2213.023 123.500 2198.737 64.500 L 2184.451 5.500 2137.726 5.240 L 2091 4.980 2091 109.990 M 2369 110 L 2369 215 2458 215 L 2547 215 2547 188 L 2547 161 2491 161 L 2435 161 2435 148 L 2435 135 2484.500 135 L 2534 135 2534 110 L 2534 85 2484.500 85 L 2435 85 2435 72 L 2435 59 2489.500 59 L 2544 59 2544 32 L 2544 5 2456.500 5 L 2369 5 2369 110 M 1948.500 54.343 L 1944.500 55.670 1940.137 57.913 L 1935.774 60.156 1931.573 64.478 L 1927.373 68.799 1924.215 75.214 L 1921.057 81.629 1919.574 88.065 L 1918.091 94.500 1917.431 103.500 L 1916.771 112.500 1917.936 121.993 L 1919.100 131.486 1921.517 138.437 L 1923.934 145.387 1927.633 150.757 L 1931.331 156.127 1936.678 159.956 L 1942.025 163.785 1948.480 165.532 L 1954.934 167.279 1961.413 166.759 L 1967.892 166.239 1974.196 163.261 L 1980.500 160.283 1984.676 156.019 L 1988.852 151.755 1991.951 145.941 L 1995.049 140.128 1997.122 132.314 L 1999.194 124.500 1999.194 110 L 1999.194 95.500 1997.163 87.846 L 1995.131 80.192 1992.464 74.929 L 1989.797 69.665 1984.871 64.457 L 1979.945 59.248 1973.722 56.450 L 1967.500 53.651 1960 53.333 L 1952.500 53.015 1948.500 54.343 M 1709 173.500 L 1709 182 1717.500 182 L 1726 182 1726 173.500 L 1726 165 1717.500 165 L 1709 165 1709 173.500 M 1734 173.500 L 1734 182 1742.500 182 L 1751 182 1751 173.500 L 1751 165 1742.500 165 L 1734 165 1734 173.500 M 1709 198.500 L 1709 207 1717.500 207 L 1726 207 1726 198.500 L 1726 190 1717.500 190 L 1709 190 1709 198.500 M 1734 198.500 L 1734 207 1742.500 207 L 1751 207 1751 198.500 L 1751 190 1742.500 190 L 1734 190 1734 198.500" stroke="none" fill="#043c6c" fill-rule="evenodd"/><path d="M 0.245 112.250 L 0.500 217.500 33.250 217.764 L 66 218.027 66 176.514 L 66 135 95.489 135 L 124.978 135 125.239 176.250 L 125.500 217.500 158.250 217.764 L 191 218.027 191 112.514 L 191 7 158 7 L 125 7 125 43.500 L 125 80 95.500 80 L 66 80 66 43.500 L 66 7 32.995 7 L -0.009 7 0.245 112.250 M 243 111.676 L 204.500 216.326 204.749 216.913 L 204.999 217.500 237.469 217.764 L 269.940 218.027 274.660 203.014 L 279.380 188 312.440 188.004 L 345.500 188.008 348.436 198.254 L 351.371 208.500 352.761 213.250 L 354.150 218 388.182 218 L 422.214 218 421.789 216.750 L 421.365 215.500 383.446 111.250 L 345.527 7 313.513 7.013 L 281.500 7.026 243 111.676 M 436 112.552 L 436 218.105 502.250 217.746 L 568.500 217.387 577 215.153 L 585.500 212.919 593.500 209.019 L 601.500 205.119 607.249 200.310 L 612.998 195.500 616.931 190.240 L 620.864 184.980 623.357 179.711 L 625.850 174.442 627.559 166.005 L 629.269 157.567 628.658 148.966 L 628.048 140.365 626.060 133.933 L 624.072 127.500 621.001 122.660 L 617.930 117.820 612.776 112.879 L 607.623 107.938 600.868 104.719 L 594.113 101.500 594.083 101 L 594.054 100.500 598.135 98 L 602.215 95.500 607.523 89.785 L 612.830 84.069 615.067 78.285 L 617.303 72.500 617.777 63.101 L 618.252 53.702 617.029 48.101 L 615.806 42.500 612.738 36.194 L 609.670 29.887 604.367 24.584 L 599.064 19.281 592.282 15.754 L 585.500 12.226 580 10.680 L 574.500 9.134 566.678 8.067 L 558.855 7 497.428 7 L 436 7 436 112.552 M 653.245 112.250 L 653.500 217.500 686.250 217.764 L 719 218.027 719 112.514 L 719 7 685.995 7 L 652.991 7 653.245 112.250 M 741 34.500 L 741 62 770.500 62 L 800 62 800 140 L 800 218 833 218 L 866 218 866 140 L 866 62 895 62 L 924 62 924 34.500 L 924 7 832.500 7 L 741 7 741 34.500 M 983.102 9.250 L 982.254 11.500 944.627 113.636 L 907 215.771 907 216.899 L 907 218.027 939.707 217.764 L 972.413 217.500 977 203 L 981.587 188.500 1014.629 188.237 L 1047.672 187.973 1051.508 201.237 L 1055.344 214.500 1056.207 216.250 L 1057.070 218 1090.535 218 L 1124 218 1124 217.091 L 1124 216.182 1086.894 114.341 L 1049.788 12.500 1048.796 9.750 L 1047.804 7 1015.877 7 L 983.950 7 983.102 9.250 M 1138 112.455 L 1138 218 1170.500 218 L 1203 218 1203 181.500 L 1203 145 1223.250 145.006 L 1243.500 145.011 1247.321 146.072 L 1251.142 147.133 1254.951 150.575 L 1258.761 154.017 1260.917 159.028 L 1263.072 164.039 1264.451 174.269 L 1265.830 184.500 1266.905 194.755 L 1267.980 205.010 1269.612 211.505 L 1271.243 218 1303.622 218 L 1336 218 1335.989 217.250 L 1335.978 216.500 1334.579 211.888 L 1333.179 207.276 1332.106 199.888 L 1331.033 192.500 1330.020 178.425 L 1329.008 164.349 1327.021 156.583 L 1325.035 148.816 1321.784 142.213 L 1318.534 135.610 1313.343 130.003 L 1308.152 124.397 1304.576 122.471 L 1301 120.545 1301 120.021 L 1301 119.497 1305.552 117.082 L 1310.104 114.667 1315.110 109.189 L 1320.117 103.710 1323.127 97.749 L 1326.136 91.787 1328.068 84.234 L 1330 76.680 1329.985 67.590 L 1329.970 58.500 1328.463 52.103 L 1326.955 45.706 1323.358 38.862 L 1319.761 32.017 1312.869 25.515 L 1305.977 19.013 1298.874 15.437 L 1291.771 11.860 1284.136 9.709 L 1276.500 7.558 1207.250 7.234 L 1138 6.911 1138 112.455 M 1356 112.500 L 1356 218 1444.500 218 L 1533 218 1533 190.500 L 1533 163 1477 163 L 1421 163 1421 150.500 L 1421 138 1470.500 138 L 1520 138 1520 112.500 L 1520 87 1470.500 87 L 1421 87 1421 74.500 L 1421 62 1475.500 62 L 1530 62 1530 34.500 L 1530 7 1443 7 L 1356 7 1356 112.500 M 501 73.516 L 501 89.199 522.250 88.842 L 543.500 88.486 547.487 86.493 L 551.474 84.500 553.737 81.102 L 556 77.704 556 72.487 L 556 67.270 553.912 64.615 L 551.823 61.960 548.662 60.234 L 545.500 58.508 523.250 58.171 L 501 57.834 501 73.516 M 1203 78.512 L 1203 99.217 1225.250 98.763 L 1247.500 98.308 1251.972 96.620 L 1256.443 94.932 1258.817 92.716 L 1261.190 90.500 1262.477 88 L 1263.764 85.500 1264.440 81.425 L 1265.117 77.349 1263.967 72.782 L 1262.817 68.215 1259.655 65.150 L 1256.493 62.085 1251.996 60.371 L 1247.500 58.657 1225.250 58.232 L 1203 57.807 1203 78.512 M 304.101 109.340 L 294.703 139.500 294.244 140.750 L 293.786 142 312.960 142 L 332.135 142 331.602 140.250 L 331.068 138.500 322.537 109.086 L 314.006 79.672 313.753 79.426 L 313.500 79.180 304.101 109.340 M 1005.897 110.763 L 996.294 141.500 1014.791 141.773 L 1033.288 142.045 1033.739 141.595 L 1034.189 141.144 1025.345 110.583 L 1016.500 80.022 1016 80.024 L 1015.500 80.027 1005.897 110.763 M 501 148.043 L 501 167.184 524.779 166.842 L 548.559 166.500 553.529 163.941 L 558.500 161.383 560.734 157.441 L 562.967 153.500 562.967 147.500 L 562.967 141.500 560.734 137.588 L 558.500 133.677 554.500 131.588 L 550.500 129.500 525.750 129.201 L 501 128.902 501 148.043" stroke="none" fill="#3484bc" fill-rule="evenodd"/></svg>